<mxfile host="app.diagrams.net" agent="Mozilla/5.0 (Windows NT 10.0; Win64; x64; rv:144.0) Gecko/20100101 Firefox/144.0" version="28.2.8">
  <diagram name="Page-1" id="kJ4qAjRTMOB3D1XhDKEM">
    <mxGraphModel dx="3100" dy="1332" grid="1" gridSize="10" guides="1" tooltips="1" connect="1" arrows="1" fold="1" page="1" pageScale="1" pageWidth="827" pageHeight="1169" math="0" shadow="0">
      <root>
        <mxCell id="0" />
        <mxCell id="1" parent="0" />
        <mxCell id="GxxHf7B6pFSHa60Jk6ev-16" style="edgeStyle=orthogonalEdgeStyle;rounded=0;orthogonalLoop=1;jettySize=auto;html=1;" edge="1" parent="1" source="GxxHf7B6pFSHa60Jk6ev-1" target="GxxHf7B6pFSHa60Jk6ev-9">
          <mxGeometry relative="1" as="geometry" />
        </mxCell>
        <mxCell id="GxxHf7B6pFSHa60Jk6ev-48" style="edgeStyle=orthogonalEdgeStyle;rounded=0;orthogonalLoop=1;jettySize=auto;html=1;" edge="1" parent="1" source="GxxHf7B6pFSHa60Jk6ev-1" target="GxxHf7B6pFSHa60Jk6ev-47">
          <mxGeometry relative="1" as="geometry">
            <Array as="points">
              <mxPoint x="100" y="270" />
              <mxPoint x="100" y="380" />
            </Array>
          </mxGeometry>
        </mxCell>
        <mxCell id="GxxHf7B6pFSHa60Jk6ev-49" style="edgeStyle=orthogonalEdgeStyle;rounded=0;orthogonalLoop=1;jettySize=auto;html=1;" edge="1" parent="1" source="GxxHf7B6pFSHa60Jk6ev-1" target="GxxHf7B6pFSHa60Jk6ev-31">
          <mxGeometry relative="1" as="geometry">
            <Array as="points">
              <mxPoint x="100" y="270" />
              <mxPoint x="100" y="160" />
            </Array>
          </mxGeometry>
        </mxCell>
        <mxCell id="GxxHf7B6pFSHa60Jk6ev-65" style="edgeStyle=orthogonalEdgeStyle;rounded=0;orthogonalLoop=1;jettySize=auto;html=1;" edge="1" parent="1" source="GxxHf7B6pFSHa60Jk6ev-1" target="GxxHf7B6pFSHa60Jk6ev-64">
          <mxGeometry relative="1" as="geometry" />
        </mxCell>
        <mxCell id="GxxHf7B6pFSHa60Jk6ev-72" style="edgeStyle=orthogonalEdgeStyle;rounded=0;orthogonalLoop=1;jettySize=auto;html=1;" edge="1" parent="1" source="GxxHf7B6pFSHa60Jk6ev-1" target="GxxHf7B6pFSHa60Jk6ev-71">
          <mxGeometry relative="1" as="geometry">
            <Array as="points">
              <mxPoint x="100" y="270" />
              <mxPoint x="100" y="480" />
            </Array>
          </mxGeometry>
        </mxCell>
        <mxCell id="GxxHf7B6pFSHa60Jk6ev-1" value="Admin" style="shape=umlActor;verticalLabelPosition=bottom;verticalAlign=top;html=1;outlineConnect=0;" vertex="1" parent="1">
          <mxGeometry x="150" y="240" width="30" height="60" as="geometry" />
        </mxCell>
        <mxCell id="GxxHf7B6pFSHa60Jk6ev-14" style="edgeStyle=orthogonalEdgeStyle;rounded=0;orthogonalLoop=1;jettySize=auto;html=1;" edge="1" parent="1" source="GxxHf7B6pFSHa60Jk6ev-2" target="GxxHf7B6pFSHa60Jk6ev-9">
          <mxGeometry relative="1" as="geometry" />
        </mxCell>
        <mxCell id="GxxHf7B6pFSHa60Jk6ev-59" style="edgeStyle=orthogonalEdgeStyle;rounded=0;orthogonalLoop=1;jettySize=auto;html=1;" edge="1" parent="1" source="GxxHf7B6pFSHa60Jk6ev-2" target="GxxHf7B6pFSHa60Jk6ev-28">
          <mxGeometry relative="1" as="geometry">
            <Array as="points">
              <mxPoint x="520" y="450" />
              <mxPoint x="520" y="620" />
            </Array>
          </mxGeometry>
        </mxCell>
        <mxCell id="GxxHf7B6pFSHa60Jk6ev-63" style="edgeStyle=orthogonalEdgeStyle;rounded=0;orthogonalLoop=1;jettySize=auto;html=1;" edge="1" parent="1" source="GxxHf7B6pFSHa60Jk6ev-2" target="GxxHf7B6pFSHa60Jk6ev-25">
          <mxGeometry relative="1" as="geometry" />
        </mxCell>
        <mxCell id="GxxHf7B6pFSHa60Jk6ev-68" style="edgeStyle=orthogonalEdgeStyle;rounded=0;orthogonalLoop=1;jettySize=auto;html=1;" edge="1" parent="1" source="GxxHf7B6pFSHa60Jk6ev-2" target="GxxHf7B6pFSHa60Jk6ev-20">
          <mxGeometry relative="1" as="geometry">
            <Array as="points">
              <mxPoint x="520" y="450" />
              <mxPoint x="520" y="340" />
            </Array>
          </mxGeometry>
        </mxCell>
        <mxCell id="GxxHf7B6pFSHa60Jk6ev-2" value="Real Estate Agent" style="shape=umlActor;verticalLabelPosition=bottom;verticalAlign=top;html=1;outlineConnect=0;" vertex="1" parent="1">
          <mxGeometry x="150" y="420" width="30" height="60" as="geometry" />
        </mxCell>
        <mxCell id="GxxHf7B6pFSHa60Jk6ev-43" style="edgeStyle=orthogonalEdgeStyle;rounded=0;orthogonalLoop=1;jettySize=auto;html=1;" edge="1" parent="1" source="GxxHf7B6pFSHa60Jk6ev-3" target="GxxHf7B6pFSHa60Jk6ev-22">
          <mxGeometry relative="1" as="geometry" />
        </mxCell>
        <mxCell id="GxxHf7B6pFSHa60Jk6ev-52" style="edgeStyle=orthogonalEdgeStyle;rounded=0;orthogonalLoop=1;jettySize=auto;html=1;" edge="1" parent="1" source="GxxHf7B6pFSHa60Jk6ev-3" target="GxxHf7B6pFSHa60Jk6ev-33">
          <mxGeometry relative="1" as="geometry">
            <Array as="points">
              <mxPoint x="80" y="800" />
              <mxPoint x="80" y="930" />
            </Array>
          </mxGeometry>
        </mxCell>
        <mxCell id="GxxHf7B6pFSHa60Jk6ev-3" value="&lt;div&gt;Anonymous&lt;/div&gt;" style="shape=umlActor;verticalLabelPosition=bottom;verticalAlign=top;html=1;outlineConnect=0;" vertex="1" parent="1">
          <mxGeometry x="150" y="770" width="30" height="60" as="geometry" />
        </mxCell>
        <mxCell id="GxxHf7B6pFSHa60Jk6ev-15" style="edgeStyle=orthogonalEdgeStyle;rounded=0;orthogonalLoop=1;jettySize=auto;html=1;" edge="1" parent="1" source="GxxHf7B6pFSHa60Jk6ev-4" target="GxxHf7B6pFSHa60Jk6ev-9">
          <mxGeometry relative="1" as="geometry" />
        </mxCell>
        <mxCell id="GxxHf7B6pFSHa60Jk6ev-36" style="edgeStyle=orthogonalEdgeStyle;rounded=0;orthogonalLoop=1;jettySize=auto;html=1;entryX=0;entryY=0.5;entryDx=0;entryDy=0;" edge="1" parent="1" source="GxxHf7B6pFSHa60Jk6ev-4" target="GxxHf7B6pFSHa60Jk6ev-26">
          <mxGeometry relative="1" as="geometry">
            <Array as="points">
              <mxPoint x="340" y="620" />
              <mxPoint x="340" y="990" />
            </Array>
          </mxGeometry>
        </mxCell>
        <mxCell id="GxxHf7B6pFSHa60Jk6ev-37" style="edgeStyle=orthogonalEdgeStyle;rounded=0;orthogonalLoop=1;jettySize=auto;html=1;" edge="1" parent="1" source="GxxHf7B6pFSHa60Jk6ev-4" target="GxxHf7B6pFSHa60Jk6ev-27">
          <mxGeometry relative="1" as="geometry">
            <Array as="points">
              <mxPoint x="340" y="620" />
              <mxPoint x="340" y="890" />
            </Array>
          </mxGeometry>
        </mxCell>
        <mxCell id="GxxHf7B6pFSHa60Jk6ev-46" style="edgeStyle=orthogonalEdgeStyle;rounded=0;orthogonalLoop=1;jettySize=auto;html=1;" edge="1" parent="1" source="GxxHf7B6pFSHa60Jk6ev-4" target="GxxHf7B6pFSHa60Jk6ev-23">
          <mxGeometry relative="1" as="geometry">
            <Array as="points">
              <mxPoint x="340" y="620" />
              <mxPoint x="340" y="690" />
            </Array>
          </mxGeometry>
        </mxCell>
        <mxCell id="GxxHf7B6pFSHa60Jk6ev-60" style="edgeStyle=orthogonalEdgeStyle;rounded=0;orthogonalLoop=1;jettySize=auto;html=1;" edge="1" parent="1" source="GxxHf7B6pFSHa60Jk6ev-4" target="GxxHf7B6pFSHa60Jk6ev-28">
          <mxGeometry relative="1" as="geometry">
            <Array as="points">
              <mxPoint x="460" y="620" />
              <mxPoint x="460" y="620" />
            </Array>
          </mxGeometry>
        </mxCell>
        <mxCell id="GxxHf7B6pFSHa60Jk6ev-62" style="edgeStyle=orthogonalEdgeStyle;rounded=0;orthogonalLoop=1;jettySize=auto;html=1;" edge="1" parent="1" source="GxxHf7B6pFSHa60Jk6ev-4" target="GxxHf7B6pFSHa60Jk6ev-24">
          <mxGeometry relative="1" as="geometry">
            <Array as="points">
              <mxPoint x="340" y="620" />
              <mxPoint x="340" y="790" />
            </Array>
          </mxGeometry>
        </mxCell>
        <mxCell id="GxxHf7B6pFSHa60Jk6ev-4" value="Client" style="shape=umlActor;verticalLabelPosition=bottom;verticalAlign=top;html=1;outlineConnect=0;" vertex="1" parent="1">
          <mxGeometry x="150" y="590" width="30" height="60" as="geometry" />
        </mxCell>
        <mxCell id="GxxHf7B6pFSHa60Jk6ev-42" style="edgeStyle=orthogonalEdgeStyle;rounded=0;orthogonalLoop=1;jettySize=auto;html=1;" edge="1" parent="1" source="GxxHf7B6pFSHa60Jk6ev-9" target="GxxHf7B6pFSHa60Jk6ev-21">
          <mxGeometry relative="1" as="geometry" />
        </mxCell>
        <mxCell id="GxxHf7B6pFSHa60Jk6ev-69" style="edgeStyle=orthogonalEdgeStyle;rounded=0;orthogonalLoop=1;jettySize=auto;html=1;" edge="1" parent="1" source="GxxHf7B6pFSHa60Jk6ev-9" target="GxxHf7B6pFSHa60Jk6ev-19">
          <mxGeometry relative="1" as="geometry">
            <Array as="points">
              <mxPoint x="340" y="130" />
              <mxPoint x="340" y="320" />
            </Array>
          </mxGeometry>
        </mxCell>
        <mxCell id="GxxHf7B6pFSHa60Jk6ev-70" style="edgeStyle=orthogonalEdgeStyle;rounded=0;orthogonalLoop=1;jettySize=auto;html=1;" edge="1" parent="1" source="GxxHf7B6pFSHa60Jk6ev-9" target="GxxHf7B6pFSHa60Jk6ev-53">
          <mxGeometry relative="1" as="geometry">
            <Array as="points">
              <mxPoint x="540" y="130" />
              <mxPoint x="540" y="230" />
            </Array>
          </mxGeometry>
        </mxCell>
        <mxCell id="GxxHf7B6pFSHa60Jk6ev-9" value="User" style="shape=umlActor;verticalLabelPosition=bottom;verticalAlign=top;html=1;outlineConnect=0;" vertex="1" parent="1">
          <mxGeometry x="260" y="100" width="30" height="60" as="geometry" />
        </mxCell>
        <mxCell id="GxxHf7B6pFSHa60Jk6ev-12" style="edgeStyle=orthogonalEdgeStyle;rounded=0;orthogonalLoop=1;jettySize=auto;html=1;" edge="1" parent="1" source="GxxHf7B6pFSHa60Jk6ev-3" target="GxxHf7B6pFSHa60Jk6ev-9">
          <mxGeometry relative="1" as="geometry">
            <mxPoint x="220" y="180" as="targetPoint" />
          </mxGeometry>
        </mxCell>
        <mxCell id="GxxHf7B6pFSHa60Jk6ev-19" value="List RealEstates" style="ellipse;whiteSpace=wrap;html=1;" vertex="1" parent="1">
          <mxGeometry x="390" y="280" width="120" height="80" as="geometry" />
        </mxCell>
        <mxCell id="GxxHf7B6pFSHa60Jk6ev-20" value="Create/Edit/Delete RealEstates" style="ellipse;whiteSpace=wrap;html=1;" vertex="1" parent="1">
          <mxGeometry x="570" y="300" width="120" height="80" as="geometry" />
        </mxCell>
        <mxCell id="GxxHf7B6pFSHa60Jk6ev-21" value="Login/Logout" style="ellipse;whiteSpace=wrap;html=1;" vertex="1" parent="1">
          <mxGeometry x="580" y="90" width="120" height="80" as="geometry" />
        </mxCell>
        <mxCell id="GxxHf7B6pFSHa60Jk6ev-22" value="Create Account" style="ellipse;whiteSpace=wrap;html=1;" vertex="1" parent="1">
          <mxGeometry x="-60" y="760" width="120" height="80" as="geometry" />
        </mxCell>
        <mxCell id="GxxHf7B6pFSHa60Jk6ev-23" value="Delete Client Account" style="ellipse;whiteSpace=wrap;html=1;" vertex="1" parent="1">
          <mxGeometry x="390" y="650" width="120" height="80" as="geometry" />
        </mxCell>
        <mxCell id="GxxHf7B6pFSHa60Jk6ev-24" value="&lt;div&gt;Create Meeting&lt;/div&gt;" style="ellipse;whiteSpace=wrap;html=1;" vertex="1" parent="1">
          <mxGeometry x="390" y="750" width="120" height="80" as="geometry" />
        </mxCell>
        <mxCell id="GxxHf7B6pFSHa60Jk6ev-25" value="&lt;div&gt;Edit/Approve/Delete Meeting&lt;/div&gt;" style="ellipse;whiteSpace=wrap;html=1;" vertex="1" parent="1">
          <mxGeometry x="570" y="410" width="120" height="80" as="geometry" />
        </mxCell>
        <mxCell id="GxxHf7B6pFSHa60Jk6ev-26" value="Create Review" style="ellipse;whiteSpace=wrap;html=1;" vertex="1" parent="1">
          <mxGeometry x="390" y="950" width="120" height="80" as="geometry" />
        </mxCell>
        <mxCell id="GxxHf7B6pFSHa60Jk6ev-27" value="Delete Review" style="ellipse;whiteSpace=wrap;html=1;" vertex="1" parent="1">
          <mxGeometry x="390" y="850" width="120" height="80" as="geometry" />
        </mxCell>
        <mxCell id="GxxHf7B6pFSHa60Jk6ev-28" value="List Meeting" style="ellipse;whiteSpace=wrap;html=1;" vertex="1" parent="1">
          <mxGeometry x="570" y="580" width="120" height="80" as="geometry" />
        </mxCell>
        <mxCell id="GxxHf7B6pFSHa60Jk6ev-31" value="Block Account" style="ellipse;whiteSpace=wrap;html=1;" vertex="1" parent="1">
          <mxGeometry x="-60" y="120" width="120" height="80" as="geometry" />
        </mxCell>
        <mxCell id="GxxHf7B6pFSHa60Jk6ev-33" value="Reset Account Password" style="ellipse;whiteSpace=wrap;html=1;" vertex="1" parent="1">
          <mxGeometry x="-60" y="870" width="120" height="80" as="geometry" />
        </mxCell>
        <mxCell id="GxxHf7B6pFSHa60Jk6ev-47" value="User Management" style="ellipse;whiteSpace=wrap;html=1;" vertex="1" parent="1">
          <mxGeometry x="-60" y="340" width="120" height="80" as="geometry" />
        </mxCell>
        <mxCell id="GxxHf7B6pFSHa60Jk6ev-53" value="Edit Account" style="ellipse;whiteSpace=wrap;html=1;" vertex="1" parent="1">
          <mxGeometry x="580" y="190" width="120" height="80" as="geometry" />
        </mxCell>
        <mxCell id="GxxHf7B6pFSHa60Jk6ev-66" value="" style="edgeStyle=orthogonalEdgeStyle;rounded=0;orthogonalLoop=1;jettySize=auto;html=1;" edge="1" parent="1" source="GxxHf7B6pFSHa60Jk6ev-1" target="GxxHf7B6pFSHa60Jk6ev-64">
          <mxGeometry relative="1" as="geometry">
            <mxPoint x="150" y="310" as="sourcePoint" />
            <mxPoint y="200" as="targetPoint" />
          </mxGeometry>
        </mxCell>
        <mxCell id="GxxHf7B6pFSHa60Jk6ev-64" value="*" style="ellipse;whiteSpace=wrap;html=1;" vertex="1" parent="1">
          <mxGeometry x="-60" y="230" width="120" height="80" as="geometry" />
        </mxCell>
        <mxCell id="GxxHf7B6pFSHa60Jk6ev-67" value="" style="edgeStyle=orthogonalEdgeStyle;rounded=0;orthogonalLoop=1;jettySize=auto;html=1;" edge="1" parent="1" source="GxxHf7B6pFSHa60Jk6ev-9" target="GxxHf7B6pFSHa60Jk6ev-29">
          <mxGeometry relative="1" as="geometry">
            <mxPoint x="290" y="130" as="sourcePoint" />
            <mxPoint x="600" y="90" as="targetPoint" />
            <Array as="points">
              <mxPoint x="340" y="130" />
              <mxPoint x="340" y="220" />
            </Array>
          </mxGeometry>
        </mxCell>
        <mxCell id="GxxHf7B6pFSHa60Jk6ev-29" value="List Review" style="ellipse;whiteSpace=wrap;html=1;" vertex="1" parent="1">
          <mxGeometry x="390" y="180" width="120" height="80" as="geometry" />
        </mxCell>
        <mxCell id="GxxHf7B6pFSHa60Jk6ev-71" value="Delete Admin/RealEstate Agent Account" style="ellipse;whiteSpace=wrap;html=1;" vertex="1" parent="1">
          <mxGeometry x="-60" y="440" width="120" height="80" as="geometry" />
        </mxCell>
      </root>
    </mxGraphModel>
  </diagram>
</mxfile>
